<svg width="11" height="20" viewBox="0 0 11 20" fill="none" xmlns="http://www.w3.org/2000/svg">
<path fill-rule="evenodd" clip-rule="evenodd" d="M10.6337 0.292192C10.4361 0.104594 10.1741 0 9.90168 0C9.62925 0 9.36722 0.104594 9.16968 0.292192L0.606677 8.55619C0.414997 8.73835 0.262371 8.9576 0.158076 9.20059C0.0537822 9.44359 0 9.70526 0 9.96969C0 10.2341 0.0537822 10.4958 0.158076 10.7388C0.262371 10.9818 0.414997 11.201 0.606677 11.3832L9.23168 19.7082C9.63168 20.0932 10.2797 20.0982 10.6857 19.7182C10.784 19.6277 10.8626 19.5179 10.9167 19.3957C10.9708 19.2735 10.9992 19.1415 11.0001 19.0079C11.0011 18.8742 10.9745 18.7418 10.9222 18.6189C10.8698 18.496 10.7927 18.3851 10.6957 18.2932L2.80268 10.6762C2.70676 10.5851 2.63038 10.4755 2.57819 10.3539C2.52599 10.2324 2.49908 10.1015 2.49908 9.96919C2.49908 9.83691 2.52599 9.70602 2.57819 9.58448C2.63038 9.46293 2.70676 9.35328 2.80268 9.26219L10.6327 1.70519C10.7286 1.61419 10.8049 1.50462 10.8571 1.38316C10.9093 1.2617 10.9362 1.13089 10.9362 0.998692C10.9362 0.866496 10.9093 0.735683 10.8571 0.614221C10.8049 0.49276 10.7296 0.383192 10.6337 0.292192Z" fill="#7766C6"/>
</svg>
