<svg width="20" height="23" viewBox="0 0 20 23" fill="none" xmlns="http://www.w3.org/2000/svg">
<path d="M7.41964 0C6.82589 0 6.29018 0.361553 6.08036 0.906061L5.35714 2.78788H1.07143C0.477679 2.78788 0 3.25398 0 3.83333C0 4.41269 0.477679 4.87879 1.07143 4.87879H18.9286C19.5223 4.87879 20 4.41269 20 3.83333C20 3.25398 19.5223 2.78788 18.9286 2.78788H14.6429L13.9196 0.906061C13.7098 0.361553 13.1786 0 12.5804 0H7.41964ZM1.42857 6.9697V20.2121C1.42857 21.7498 2.70982 23 4.28571 23H15.7143C17.2902 23 18.5714 21.7498 18.5714 20.2121V6.9697H16.4286V20.2121C16.4286 20.5955 16.1071 20.9091 15.7143 20.9091H4.28571C3.89286 20.9091 3.57143 20.5955 3.57143 20.2121V6.9697H1.42857ZM8.57143 10.1061C8.57143 9.5267 8.09375 9.06061 7.5 9.06061C6.90625 9.06061 6.42857 9.5267 6.42857 10.1061V17.7727C6.42857 18.3521 6.90625 18.8182 7.5 18.8182C8.09375 18.8182 8.57143 18.3521 8.57143 17.7727V10.1061ZM13.5714 10.1061C13.5714 9.5267 13.0938 9.06061 12.5 9.06061C11.9062 9.06061 11.4286 9.5267 11.4286 10.1061V17.7727C11.4286 18.3521 11.9062 18.8182 12.5 18.8182C13.0938 18.8182 13.5714 18.3521 13.5714 17.7727V10.1061Z" fill="#7766C6"/>
</svg>
