<svg xmlns="http://www.w3.org/2000/svg" viewBox="0 0 47.05 35.79" id="discord">
  <g>
    <path d="M47.05 25.61c0 1.29 0 2.48-.13 3.67a1.09 1.09 0 0 1-.47.88 39.31 39.31 0 0 1-11.13 5.59.54.54 0 0 1-.7-.23 41.56 41.56 0 0 1-2.1-3.44c-.17-.33-.06-.46.24-.57A26.62 26.62 0 0 0 35.91 30c.28-.16.35-.25.08-.52-.52-.51-.54-.54-1.18-.26a28.7 28.7 0 0 1-13 2.37A28.18 28.18 0 0 1 12 29.24a1.1 1.1 0 0 0-1.15.44c-.08.17.06.2.15.28A8.65 8.65 0 0 0 13 31a11.8 11.8 0 0 0 1.27.54c.31.11.31.25.17.5a29.43 29.43 0 0 1-2.08 3.4.44.44 0 0 1-.58.2L10 35.09a35.41 35.41 0 0 1-9.52-5 .77.77 0 0 1-.35-.61 39.47 39.47 0 0 1 1.95-16.4A44.29 44.29 0 0 1 7 3.22a1.07 1.07 0 0 1 .49-.4 38.74 38.74 0 0 1 9-2.8.53.53 0 0 1 .66.33c.25.54.56 1.06.77 1.61a.64.64 0 0 0 .84.45 32.79 32.79 0 0 1 3.7-.32 34.11 34.11 0 0 1 5.54.28h.41a.51.51 0 0 0 .67-.36c.22-.55.52-1.07.76-1.62a.6.6 0 0 1 .79-.39 39.82 39.82 0 0 1 8.78 2.7 1.94 1.94 0 0 1 .82.76A42.79 42.79 0 0 1 44 10.41a38.56 38.56 0 0 1 3 11.91c0 1.12 0 2.25.05 3.29Zm-19.95-6.3a4.9 4.9 0 0 0 1.13 3.5 3.86 3.86 0 0 0 5.87.42 5.13 5.13 0 0 0 .75-6.23 3.93 3.93 0 0 0-5.78-1.3 4.61 4.61 0 0 0-1.97 3.61Zm-15.61.4a4.64 4.64 0 0 0 1.79 3.79 3.88 3.88 0 0 0 5.18-.24 5.06 5.06 0 0 0 .39-6.73 3.93 3.93 0 0 0-5.28-.94 4.82 4.82 0 0 0-2.08 4.12Z"></path>
  </g>
</svg>
