<svg xmlns="http://www.w3.org/2000/svg" viewBox="0 0 32 32" id="edit">
  <path d="M30 15a1 1 0 0 0-1 1v10a3 3 0 0 1-3 3H6a3 3 0 0 1-3-3V6a3 3 0 0 1 3-3h10a1 1 0 0 0 0-2H6a5 5 0 0 0-5 5v20a5 5 0 0 0 5 5h20a5 5 0 0 0 5-5V16a1 1 0 0 0-1-1Z"></path>
  <path d="M7 19.13V24a1 1 0 0 0 1 1h4.87a3 3 0 0 0 2.13-.88L30.12 9a3 3 0 0 0 0-4.27l-2.86-2.85a3.09 3.09 0 0 0-4.27 0L7.88 17A3.06 3.06 0 0 0 7 19.13ZM24.41 3.3a1 1 0 0 1 1.44 0l2.85 2.85a1 1 0 0 1 0 1.44l-2.15 2.15-4.29-4.29ZM9 19.13a1 1 0 0 1 .3-.72L20.85 6.86l4.29 4.29L13.59 22.7a1 1 0 0 1-.72.3H9Z"></path>
</svg>
