<svg width="24" height="24" viewBox="0 0 24 24" fill="none" xmlns="http://www.w3.org/2000/svg">
<path d="M20.6719 2.57695L21.2391 3.14414C21.6797 3.58477 21.6797 4.29727 21.2391 4.7332L19.875 6.10195L17.7141 3.94102L19.0781 2.57695C19.5187 2.13633 20.2312 2.13633 20.6672 2.57695H20.6719ZM9.83437 11.8254L16.125 5.53008L18.2859 7.69101L11.9906 13.9816C11.8547 14.1176 11.6859 14.216 11.5031 14.2676L8.76094 15.0504L9.54375 12.3082C9.59531 12.1254 9.69375 11.9566 9.82969 11.8207L9.83437 11.8254ZM17.4891 0.987891L8.24062 10.2316C7.83281 10.6395 7.5375 11.141 7.38281 11.6895L6.04219 16.377C5.92969 16.7707 6.0375 17.1926 6.32812 17.4832C6.61875 17.7738 7.04062 17.8816 7.43437 17.7691L12.1219 16.4285C12.675 16.2691 13.1766 15.9738 13.5797 15.5707L22.8281 6.32695C24.1453 5.00976 24.1453 2.87227 22.8281 1.55508L22.2609 0.987891C20.9438 -0.329297 18.8062 -0.329297 17.4891 0.987891ZM4.125 2.81602C1.84687 2.81602 0 4.66289 0 6.94101V19.691C0 21.9691 1.84687 23.816 4.125 23.816H16.875C19.1531 23.816 21 21.9691 21 19.691V14.441C21 13.8176 20.4984 13.316 19.875 13.316C19.2516 13.316 18.75 13.8176 18.75 14.441V19.691C18.75 20.727 17.9109 21.566 16.875 21.566H4.125C3.08906 21.566 2.25 20.727 2.25 19.691V6.94101C2.25 5.90508 3.08906 5.06602 4.125 5.06602H9.375C9.99844 5.06602 10.5 4.56445 10.5 3.94102C10.5 3.31758 9.99844 2.81602 9.375 2.81602H4.125Z" fill="#7766C6"/>
</svg>
