<svg width="25" height="28" viewBox="0 0 25 28" fill="none" xmlns="http://www.w3.org/2000/svg">
<path d="M20 10.2063C22.7604 10.2063 25 7.9205 25 5.10314C25 2.28578 22.7604 0 20 0C17.2396 0 15 2.28578 15 5.10314C15 5.39019 15.026 5.67724 15.0677 5.95366L8.3125 9.78633C7.43229 8.98897 6.27083 8.50523 5 8.50523C2.23958 8.50523 0 10.791 0 13.6084C0 16.4257 2.23958 18.7115 5 18.7115C6.27083 18.7115 7.42708 18.2278 8.3125 17.4304L15.0677 21.2631C15.0208 21.5395 15 21.8212 15 22.1136C15 24.931 17.2396 27.2167 20 27.2167C22.7604 27.2167 25 24.931 25 22.1136C25 19.2962 22.7604 17.0105 20 17.0105C18.7292 17.0105 17.5729 17.4942 16.6875 18.2916L9.93229 14.4589C9.97917 14.1825 10 13.9007 10 13.6084C10 13.316 9.97396 13.0343 9.93229 12.7579L16.6875 8.92518C17.5677 9.72255 18.7292 10.2063 20 10.2063Z" fill="#7766C6"/>
</svg>
